<svg version="1.1" id="Layer_1" xmlns="http://www.w3.org/2000/svg" x="0" y="0" viewBox="0 0 271.1 55.2" style="enable-background:new 0 0 271.1 55.2" xml:space="preserve"><style>.st0{fill:#fff}</style><path class="st0" d="M24.6 27.4c2.8-.9 5.3-3.2 5.3-9.3v-2.5c0-8.1-5.3-11.1-12.9-11.1H3.2v46.1h14.1c9.7 0 12.7-3.1 13.3-9.8v-4.2c0-6.1-3.3-8.2-6-9.2zm-6.4 11.8c0 2.2-.4 3.4-2.4 3.4h-1V31.8h.7c2.1 0 2.8 1 2.8 3.3v4.1zm.1-18.9c0 2.2-.8 2.9-2.2 2.9h-1.4v-9.9h1.1c2.2 0 2.5 1.5 2.5 3.1v3.9zM44.7 36.4c0 1.9-.3 2.6-1.4 2.6-.9 0-1.3-.8-1.3-2v-7.5h-8.7v9.3c0 6.1 2.8 7.4 5.8 7.4 2.2 0 4.1-.7 5.6-2.8.1.6.1 1.5.3 2.3h8.4c-.1-1.7-.1-4.6-.1-10.3v-5.9h-8.7v6.9zM44.7 16.3h8.7v9.4h-8.7zM33.4 16.3h8.7v9.4h-8.7zM64.9 25.1c0-1.4.4-2 1.4-2 1.1 0 1.3 1 1.3 1.9v.6h8.7c0-4.2.1-7.6.1-9.4H68c-.1.4-.2 1.5-.3 2.5-.7-1.9-2.6-2.9-5-2.9-5 0-6.4 3.9-6.4 8.4v1.4H65v-.5zM67.5 35.3c0 1.6-.6 2.2-1.4 2.2-.8 0-1.2-.5-1.2-2.1v-5.8h-8.7v6.6c0 5.1 1.5 8.7 6.3 8.7 2.1 0 4.2-.8 5.2-3.3v3.7c0 2.5-.2 3.4-1.5 3.4-1 0-1.3-.9-1.3-1.7v-.1h-8.7v.2c0 5 3.1 8.1 9.4 8.1 9.7 0 10.5-5 10.5-12.7v-13h-8.7v5.8zM106.4 20v-1.3c0-5.7-2.2-9.3-9.3-9.3H86.3v16.3h18.6c1-1.3 1.5-3.1 1.5-5.7zm-8.7 1.2c0 2.3-.6 2.8-2 2.8H95v-8.1h.5c1.7 0 2.2.4 2.2 2.5v2.8zM86.3 45.7h8.6V30.4h.4c1.7 0 2.1.3 2.1 3.9 0 8.3.1 10.8.5 11.5h8.4c-.2-1.4-.1-5.6-.1-9.9 0-3-.2-4.9-.9-6.3h-19v16.1zM109 36.8v.6c0 4.6 1.7 8.7 6.3 8.7 2 0 4-.6 5.3-2.7.1.5.2 1.9.5 2.3h8.3c-.2-1.5-.3-3.4-.3-7.5v-8.7h-17.3c-1.7 1.5-2.8 3.8-2.8 7.3zm8.7-.7c0-2.3.8-3.3 2.2-3.3h.4v4c0 1.5-.3 2.3-1.3 2.3-.8 0-1.4-.6-1.4-2.8v-.2zM129.2 23.6c0-5.6-3.7-7.8-9.5-7.8-6.2 0-9.7 2.3-9.7 8.9v.8h8.1v-1.2c0-1.7.4-2.2 1.1-2.2.8 0 1.1.4 1.1 2v1.7h8.8v-2.2zM140.9 25.4c0-1.7.4-2.3 1.4-2.3 1.1 0 1.2 1.2 1.2 2.1v.5h8.7v-2.5c0-4.3-1.4-7.3-5.8-7.3-3.1 0-4.8 1.6-5.6 2.7-.1-.7-.1-1.4-.3-2.3h-8.4c.1.7.1 4.4.1 8.3v1.1h8.7v-.3zM143.5 29.5h8.7v16.2h-8.7zM132.2 29.5h8.7v16.2h-8.7zM166.4 35.3c0 1.6-.6 2.2-1.4 2.2s-1.2-.5-1.2-2.1v-5.8h-8.7v6.6c0 5.1 1.5 8.7 6.3 8.7 2.1 0 4.2-.8 5.2-3.3v3.7c0 2.5-.2 3.4-1.5 3.4-1 0-1.3-.9-1.3-1.7v-.1h-8.7v.2c0 5 3.1 8.1 9.4 8.1 9.7 0 10.5-5 10.5-12.7v-13h-8.7v5.8zM163.7 25.1c0-1.4.4-2 1.4-2 1.1 0 1.3 1 1.3 1.9v.6h8.7c0-4.2.1-7.6.1-9.4h-8.4c-.1.4-.2 1.5-.3 2.5-.7-1.9-2.6-2.9-5-2.9-5 0-6.4 3.9-6.4 8.4v1.4h8.7v-.5zM177.9 36.6c0 6.2 2.7 9.6 9.8 9.6 7.7 0 9.9-4 9.9-9.6v-.9h-8.4v1.6c0 1.8-.4 2.3-1.4 2.3-.9 0-1.2-.6-1.2-2.1V33h11v-3.5h-19.8v7.1zM186.7 24.6c0-1.5.4-2.3 1.3-2.3 1.1 0 1.3.9 1.3 2.3v1.1h8.5v-.2c0-6.8-4.1-9.6-9.8-9.6-5.8 0-9.9 3.1-9.9 9.6v.2h8.8v-1.1zM214.4 15.9c-2.7.1-4.6 1.8-5.4 4.1 0-1.1-.2-2.9-.3-3.7h-8.4c.1 1.5.1 4.5.1 9.4h13.9v-9.8zM200.5 45.7h8.7V29.5h-8.7v16.2zM243.6 3.5c-12.6 0-23 9.8-23.9 22.2h8.2c.9-7.9 7.6-14 15.7-14 8.8 0 15.9 7.1 15.9 15.9s-7.1 15.9-15.9 15.9c-8.1 0-14.7-6-15.7-13.8h-8.2c1 12.3 11.3 22 23.9 22 13.3 0 24-10.8 24-24 0-13.5-10.7-24.2-24-24.2z"/><path class="st0" d="M236.1 32.7c1.6 2.4 4.4 3.9 7.5 3.9 5 0 9.1-4.1 9.1-9.1s-4.1-9.1-9.1-9.1c-3 0-5.7 1.5-7.4 3.8l7.6 5.2-7.7 5.3z"/></svg>